PathFileType	4	(X/Y/Z)	C:/Users/opensim2020/Desktop/walking_exp_matlab/subject06_walking15_straight_03.trc	
DataRate	CameraRate	NumFrames	NumMarkers	Units	OrigDataRate	OrigDataStartFrame	OrigNumFrames	
100.00	100.00	9	47	mm	100.00	2233	193	
Frame#	Time	LFHD			RFHD			LBHD			RBHD			C7			T10			CLAV			STRN			RBAK			LSHO			LUPA			LELB			LFRM			LWRA			LWRB			LFIN			RSHO			RUPA			RELB			RFRM			RWRA			RWRB			RFIN			LASI			RASI			LPSI			RPSI			LTHI			LKNE			LTIB			LANK			LHEE			LTOE			RTHI			RKNE			RTIB			RANK			RHEE			RTOE			*39			*40			*41			*42			*43			*44			*45			*46			
		X1	Y1	Z1	X2	Y2	Z2	X3	Y3	Z3	X4	Y4	Z4	X5	Y5	Z5	X6	Y6	Z6	X7	Y7	Z7	X8	Y8	Z8	X9	Y9	Z9	X10	Y10	Z10	X11	Y11	Z11	X12	Y12	Z12	X13	Y13	Z13	X14	Y14	Z14	X15	Y15	Z15	X16	Y16	Z16	X17	Y17	Z17	X18	Y18	Z18	X19	Y19	Z19	X20	Y20	Z20	X21	Y21	Z21	X22	Y22	Z22	X23	Y23	Z23	X24	Y24	Z24	X25	Y25	Z25	X26	Y26	Z26	X27	Y27	Z27	X28	Y28	Z28	X29	Y29	Z29	X30	Y30	Z30	X31	Y31	Z31	X32	Y32	Z32	X33	Y33	Z33	X34	Y34	Z34	X35	Y35	Z35	X36	Y36	Z36	X37	Y37	Z37	X38	Y38	Z38	X39	Y39	Z39	X40	Y40	Z40	X41	Y41	Z41	X42	Y42	Z42	X43	Y43	Z43	X44	Y44	Z44	X45	Y45	Z45	X46	Y46	Z46	X47	Y47	Z47	

97	0.960	1368.41785	-157.97144	1667.93457	1500.15942	-151.03520	1661.24536	1376.94092	-291.09854	1613.73096	1506.48901	-283.01389	1612.38464	1438.68787	-290.00830	1461.22742	1453.92444	-341.97726	1136.22900	1434.97070	-183.04228	1379.16895	1431.81726	-153.63959	1202.76904	1525.14221	-366.17242	1298.31348	1275.00122	-246.00453	1409.97888	1210.28259	-271.56412	1206.49023	1204.85400	-286.26993	1093.85352	1185.23584	-266.24261	944.05811	1225.43127	-201.80530	830.80029	1191.45154	-263.84271	825.28961	1189.53711	-221.35156	745.02576	1596.13086	-219.25996	1418.36523	1698.82031	-268.71338	1231.97144	1721.27405	-262.09802	1113.45850	1739.36804	-215.80305	1005.18060	1699.29370	-117.11842	893.75348	1744.44470	-163.79878	879.18475	1743.61084	-104.06553	820.42480	1343.09290	-172.96980	965.66455	1562.29700	-169.07549	975.59637	1373.20947	-332.21710	997.67560	1541.07764	-320.27109	1008.27618	1290.11633	-182.10483	656.22864	1315.60376	-129.06865	502.65845	1320.59290	-265.10815	295.89758	1356.06006	-356.70621	149.86536	1402.77661	-400.32147	152.70349	1354.71899	-243.17619	60.32374	1613.32190	-238.34801	640.86713	1586.83447	-242.69069	515.56305	1573.31616	-310.00058	256.43002	1518.41431	-335.05579	72.96127	1472.77466	-375.04385	50.23137	1520.70996	-183.04837	38.23203	1431.59631	-255.06616	1708.65674																					 
98	0.970	1368.49036	-148.49789	1667.47461	1500.26294	-141.23373	1660.95618	1377.44336	-281.66986	1613.42590	1506.95215	-273.25369	1612.25110	1439.24036	-280.54132	1460.88257	1454.97705	-332.22568	1135.75134	1435.56079	-173.46852	1378.90271	1432.77283	-143.83672	1202.65210	1526.04907	-356.53802	1297.95239	1275.56018	-236.59064	1409.49011	1210.96716	-265.58649	1206.47791	1205.75195	-282.09006	1094.17151	1185.76135	-266.44247	943.91656	1225.32678	-204.11911	829.15582	1191.67761	-267.96344	825.20972	1190.69250	-227.78694	743.21466	1596.76929	-209.80812	1418.39294	1699.85046	-258.67859	1232.13098	1722.52673	-251.13304	1113.91992	1740.22986	-202.01236	1007.22009	1699.67456	-99.97598	899.41949	1744.49585	-146.23669	882.78625	1743.44849	-84.46997	826.19684	1344.42920	-163.44048	965.63940	1563.28198	-159.85754	974.82526	1373.77710	-322.15744	997.38782	1541.77319	-311.19867	1007.70032	1289.93140	-168.44688	657.36810	1316.23560	-113.68268	504.40521	1321.08301	-241.99974	291.67474	1356.48804	-326.40482	141.23688	1403.04626	-370.08496	142.03601	1355.84741	-208.59309	57.83371	1612.97375	-231.80513	640.03314	1587.00708	-237.98985	514.75708	1572.88855	-307.45581	256.30814	1518.08386	-334.57608	73.14319	1472.52563	-374.90863	50.59608	1520.74890	-182.84435	38.15116	1431.82275	-245.41060	1708.37341																					 
99	0.980	1368.50024	-139.04631	1666.84973	1500.25854	-131.49574	1660.60620	1377.85022	-272.18732	1612.91870	1507.35999	-263.51334	1611.97778	1439.61902	-270.77847	1460.35596	1455.99023	-322.49405	1135.16711	1436.06885	-163.83240	1378.49841	1433.78589	-133.98792	1202.44324	1526.87793	-346.71472	1297.42200	1276.12952	-227.05840	1408.86597	1211.55298	-259.42764	1206.45764	1206.24646	-278.65164	1094.56750	1186.23486	-266.44370	943.93958	1225.90271	-208.07623	826.99316	1192.10266	-270.98691	825.27472	1191.19434	-234.15608	742.03058	1597.36279	-200.36665	1418.36108	1700.82300	-248.64107	1232.16479	1723.67871	-240.10709	1114.29565	1741.02356	-188.30222	1009.10107	1700.19666	-82.65549	905.15991	1744.54041	-128.89883	886.41217	1743.36133	-65.32431	831.95917	1345.54907	-152.96159	965.77100	1564.26843	-150.54388	974.02545	1374.27783	-312.14120	997.03809	1542.30994	-301.67886	1006.92084	1289.67139	-154.93617	658.45520	1316.95667	-99.03400	505.91461	1321.57153	-218.96977	287.30545	1357.00610	-295.45581	132.64262	1403.53906	-339.36218	131.29814	1357.35791	-174.14883	55.72937	1612.72290	-225.47894	639.20563	1587.05420	-232.96028	513.95715	1572.43567	-304.73413	256.12482	1517.74475	-334.05075	73.39137	1472.20325	-374.65778	50.95008	1521.22620	-182.96487	37.95618	1431.99329	-235.81425	1707.97961																					 
100	0.990	1368.44409	-129.62241	1666.16968	1500.17932	-121.76889	1660.19299	1378.18604	-262.77475	1612.31042	1507.70142	-253.79770	1611.66431	1440.07446	-261.12500	1459.82703	1456.87061	-312.77789	1134.53528	1436.72620	-154.15355	1378.05640	1434.89941	-124.08234	1202.15173	1527.72021	-337.14166	1296.91931	1276.64319	-217.35703	1408.08142	1212.39233	-252.96249	1206.27478	1206.88098	-274.58252	1094.95764	1186.70471	-266.25330	944.05115	1226.08777	-211.25766	825.41571	1192.15857	-274.72525	825.61200	1191.78442	-240.06418	740.95068	1597.90698	-190.89406	1418.15454	1701.73499	-238.48961	1232.03918	1724.74951	-229.04407	1114.51147	1741.74976	-174.65451	1010.84357	1700.35034	-65.96567	910.52435	1744.32483	-111.96341	889.81720	1742.95337	-46.55754	837.39404	1346.63232	-142.55368	965.76959	1565.25403	-141.32159	973.12427	1374.73572	-301.74286	996.41107	1542.76575	-292.45953	1006.10864	1289.63257	-141.71350	659.28461	1317.47034	-85.04388	507.09631	1322.08508	-195.85068	282.76282	1357.70703	-264.02966	124.15517	1404.41199	-307.74454	120.75890	1358.08740	-138.94862	53.97238	1612.58264	-218.72594	638.26733	1586.76904	-227.58980	513.06934	1571.90906	-301.86389	255.90001	1517.30750	-333.55130	73.65657	1471.87268	-374.59961	51.59398	1521.22485	-182.59216	37.80354	1432.03418	-226.18321	1707.44043																					 
101	1.000	1368.27344	-120.18459	1665.39526	1500.09058	-112.06812	1659.70288	1378.47229	-253.30901	1611.49524	1507.96399	-244.09436	1611.18408	1440.43518	-251.41180	1459.15405	1457.63025	-302.95309	1133.76746	1437.31079	-144.35745	1377.51770	1435.90674	-114.14539	1201.78906	1528.50195	-327.44733	1296.37915	1277.11255	-207.58487	1407.16479	1213.09253	-246.36766	1206.06604	1207.74731	-270.34433	1095.24426	1187.19116	-266.00641	944.28339	1225.99683	-213.80481	824.23602	1192.27527	-277.07266	826.02393	1192.18115	-245.72546	740.22595	1598.40686	-181.35274	1417.89258	1702.60498	-228.20596	1231.82751	1725.70215	-218.00322	1114.55615	1741.98743	-161.23448	1012.33649	1700.37317	-49.69546	915.49835	1744.18726	-95.19635	893.14764	1742.62573	-28.44556	842.58722	1347.84644	-132.16057	965.61469	1566.29871	-132.07222	972.26434	1374.98877	-291.64093	995.84119	1543.02637	-283.15601	1005.10846	1288.98047	-128.58560	659.94550	1317.84253	-71.61287	507.93726	1322.57227	-172.67480	278.09341	1358.53271	-232.14301	115.93851	1405.44653	-275.42450	110.53194	1359.42065	-103.89103	52.67182	1612.44067	-211.92453	637.18951	1586.23474	-221.63385	512.15552	1571.41138	-298.77969	255.76701	1516.82971	-332.86118	73.96565	1471.47815	-374.20547	52.00238	1521.69312	-182.60143	37.57600	1432.05383	-216.64539	1706.78967																					 
102	1.010	1368.07227	-110.70260	1664.46411	1499.86072	-102.30267	1659.12317	1378.72327	-243.88362	1610.56384	1508.14856	-234.31419	1610.54553	1440.72900	-241.65984	1458.35376	1458.31360	-293.18790	1132.96362	1437.78650	-134.48802	1376.85620	1436.99170	-104.00552	1201.39343	1529.17346	-317.74496	1295.65796	1277.55884	-197.63902	1406.11462	1213.74524	-239.61655	1205.74658	1208.50854	-265.85532	1095.52966	1187.59753	-265.53680	944.64862	1225.50745	-216.25452	823.04022	1192.42517	-279.58154	826.72040	1191.91772	-251.06021	739.96649	1598.84399	-171.74097	1417.47803	1703.37561	-217.73599	1231.44763	1726.74268	-206.48477	1114.49048	1742.62952	-147.45378	1013.84534	1700.29529	-33.79195	920.14136	1744.11401	-78.55445	896.26245	1742.14893	-10.59937	847.53711	1349.00696	-121.55801	965.51642	1567.25378	-123.05592	971.31085	1375.13293	-281.28577	995.09021	1543.11145	-273.74295	1004.03046	1288.88086	-116.39222	660.28210	1318.03662	-59.10055	508.39917	1322.95691	-149.37888	273.46060	1359.75183	-199.21349	108.23835	1406.43823	-242.68178	100.94050	1360.47632	-68.65223	51.57994	1611.92346	-204.92163	636.04486	1585.64893	-215.46841	511.18225	1570.80432	-295.57468	255.53416	1516.33728	-332.11954	74.33926	1470.98450	-373.83063	52.57952	1521.78210	-182.23132	37.23589	1431.91785	-207.05904	1705.98743																					 
103	1.020	1367.76172	-101.28793	1663.43103	1499.63452	-92.61073	1658.45251	1378.86536	-234.40450	1609.49951	1508.37415	-224.50281	1609.83850	1440.99341	-231.98915	1457.49915	1458.85217	-283.38885	1132.10388	1438.28760	-124.54734	1376.13184	1438.00647	-93.65633	1200.91833	1529.74365	-307.89856	1294.95300	1277.94153	-187.68414	1404.95715	1214.41443	-232.60881	1205.34717	1209.46436	-261.29474	1095.76074	1187.93420	-264.90915	945.02856	1224.93445	-218.24275	822.10321	1192.62573	-282.00186	827.47791	1191.73218	-255.88614	739.92749	1599.22900	-162.20752	1416.98267	1704.12512	-207.14156	1230.93848	1727.58374	-195.11348	1114.29761	1743.01587	-134.21970	1014.97064	1700.15332	-18.17898	924.46252	1743.76074	-62.46729	899.28088	1741.67578	6.75156	852.22528	1350.22314	-111.11662	965.32367	1568.48779	-113.59603	970.59863	1375.19360	-270.90009	994.23651	1543.04382	-264.38254	1002.88098	1288.74719	-104.66066	660.17242	1318.10242	-47.09447	508.44055	1323.40820	-126.16090	268.96249	1360.77515	-166.59169	101.24858	1407.39771	-209.27621	91.94831	1361.52625	-33.13107	51.08507	1611.95386	-197.72331	634.89252	1585.21277	-209.34265	510.09811	1570.16736	-292.46024	255.32791	1515.80737	-331.49042	74.74922	1470.52100	-373.60626	53.41910	1522.06934	-181.87849	37.14169	1431.74170	-197.51085	1705.08740																					 
104	1.030	1367.45264	-91.78954	1662.30383	1499.31958	-82.90974	1657.69873	1378.93298	-224.92380	1608.30859	1508.52478	-214.60971	1608.90796	1441.07227	-222.03247	1456.44995	1459.33496	-273.55856	1131.17029	1438.72144	-114.58536	1375.30542	1438.96228	-83.22853	1200.37292	1530.32568	-298.09277	1294.21594	1278.26575	-177.62633	1403.69568	1215.04126	-225.38757	1204.89026	1210.21851	-256.20825	1095.96423	1188.32324	-263.82520	945.55084	1224.25366	-220.00848	821.23456	1192.96387	-284.11026	828.45648	1191.33032	-260.10199	740.12164	1599.52246	-152.67719	1416.38318	1704.74561	-196.42638	1230.28943	1728.35266	-183.66704	1113.96143	1743.42053	-120.88534	1016.08167	1699.94458	-2.98401	928.41278	1743.59375	-46.51603	902.04016	1741.16956	23.63783	856.46033	1351.25073	-100.54772	965.00964	1569.46350	-104.54652	969.68726	1375.20557	-260.43579	993.24646	1542.98645	-255.04393	1001.61493	1289.04285	-93.91263	659.72791	1318.20935	-35.65129	508.25339	1323.85107	-102.93391	264.66647	1361.74316	-133.70628	94.97746	1408.66223	-175.09299	83.53502	1362.34521	2.23963	51.20506	1611.91077	-190.81178	633.66486	1584.89807	-203.20973	508.94257	1569.64185	-289.38931	255.04089	1515.27832	-330.90915	75.12971	1469.94275	-373.19601	53.93010	1521.93481	-182.00832	36.70453	1431.44739	-187.95897	1704.07007																					 
105	1.040	1367.02930	-82.24806	1661.09290	1498.90112	-73.16582	1656.83667	1378.92285	-215.30666	1606.99792	1508.45837	-204.95534	1607.95935	1441.25134	-212.33614	1455.30408	1459.77063	-263.63220	1130.07690	1439.12463	-104.59380	1374.31689	1439.89026	-72.70470	1199.71851	1530.93909	-288.54413	1293.34229	1278.56897	-167.58191	1402.34375	1215.60742	-217.98441	1204.38672	1211.01318	-250.92645	1096.21753	1188.73206	-262.46930	946.10352	1223.54358	-221.49622	820.47723	1193.29138	-285.93375	829.62970	1191.00867	-263.79254	740.62030	1599.78662	-143.11426	1415.69592	1705.34753	-185.67149	1229.56665	1729.02747	-172.13779	1113.51990	1743.97229	-107.46384	1016.97864	1699.71118	11.89482	931.98645	1743.28625	-31.02088	904.56451	1740.52454	40.07996	860.37885	1352.19666	-90.02635	964.56891	1570.56433	-95.05743	968.74823	1375.28564	-249.87347	992.15826	1543.07813	-245.64735	1000.07611	1289.38147	-83.65597	658.87494	1318.26184	-24.65859	507.75635	1324.11804	-79.67369	260.80841	1362.67505	-100.84361	89.66966	1409.47339	-141.92630	76.71704	1363.19690	37.07420	51.89918	1611.96448	-183.33195	632.35504	1584.73853	-197.00330	507.63156	1569.21350	-286.24725	254.66927	1514.87244	-330.35004	75.51323	1469.45691	-372.71756	54.52332	1522.12390	-181.44337	36.72020	1431.09985	-178.38109	1702.94983																					 
